<?xml version="1.0" encoding="utf-8"?><svg viewBox="0 0 120 50" xmlns="http://www.w3.org/2000/svg" xmlns:xlink="http://www.w3.org/1999/xlink"><style>:root>svg{display:none}:root>svg:target{display:block}</style><svg fill="none" viewBox="0 0 120 50" id="logo" xmlns="http://www.w3.org/2000/svg"><path d="m4.87 1.18-2.28-.12-.93-.2-.19-.37c0-.35.23-.49.7-.49h23.5C36.68 0 44.4 3.53 48.9 10.62c2.58 4.11 3.87 8.98 3.87 14.61 0 2.95-.43 5.79-1.29 8.53-.99 2.89-2.34 5.44-4.1 7.72-1.92 2.39-4.26 4.25-6.96 5.61-2.88 1.38-6.11 2.1-9.74 2.1H.72c-.49 0-.72-.18-.72-.47 0-.32.35-.5 1-.5l5.74-.37c.89-.12 1.52-.39 1.83-.76l.58-.87c.21-.59.33-1.48.36-2.69V4.32c0-1.53-.82-2.47-2.42-2.84l-2.22-.3zm12.65.67-.17.99v43.53c0 .49.09.84.28.96l.94.15h3.09l7.17-.27c1.92-.22 3.56-.54 4.85-.99 1.28-.49 2.5-1.21 3.56-2.08.93-.81 1.89-1.97 2.95-3.46 1.75-2.42 3.02-5.51 3.79-9.29.47-2.47.7-4.87.7-7.17 0-2.03-.28-4.2-.86-6.55C43 14.28 41.76 11.32 40 8.8c-3.4-4.9-8.97-7.32-16.68-7.32h-4.75c-.54-.05-.89.07-1.05.37zm39.86 46.97c-.05-.3.19-.42.7-.42l1.64-.05c.89-.13 1.43-.45 1.64-.94l.31-1.78V31.27c0-.55-.19-.97-.54-1.22l-1.22-.12-1.64.47-.89-.05c-.12-.3.23-.57 1.05-.82 1.95-.54 3.66-1.23 5.11-2.1.89-.54 1.52-.84 1.8-.96l.71-.07c.23.04.35.54.35 1.43v18.09c0 .87.18 1.49.54 1.86.42.44 1.4.66 2.92.66.54 0 .82.13.87.4 0 .22-.16.3-.44.3H57.8c-.28 0-.42-.13-.42-.32zm55.28-17.8c-1.15 1.26-1.92 2.74-2.35 4.52v10.51c0 .94.31 1.6.94 2.02l1.43.28 1.5.17c.35.05.49.12.49.32l-.07.17-.4.13h-12.53c-.37 0-.58-.13-.58-.32l.35-.3 2.11-.17c.82-.15 1.33-.45 1.61-.89l.36-1.12V31.51l-.24-1.09-.4-.24c-.11-.13-.3-.2-.58-.25-.35-.02-.78.05-1.22.25l-1.19.34-.68-.17c-.12-.17-.07-.3.09-.37l1.01-.44c2.29-.72 4.14-1.46 5.43-2.23l1.59-.91.71.05.28.61v5.44c1.75-3.01 3.16-4.87 4.12-5.49.58-.37 1.15-.66 1.57-.79l.82-.07c.51-.05 1.1.12 1.75.57.89.54 1.36 1.36 1.41 2.4.05.86-.19 1.53-.7 2.05-.47.42-.94.54-1.36.42-.4-.08-.7-.25-.91-.5l-.66-.86c-.52-.79-1.01-1.04-1.59-.82-.68.2-1.39.74-2.11 1.61zM63.7 10.7c-.86 0-1.57.32-2.15.94-.63.62-.94 1.41-.89 2.32-.05.87.26 1.61.89 2.23.58.62 1.29.94 2.15.94.82 0 1.55-.33 2.13-.94.59-.62.92-1.36.92-2.23 0-.91-.33-1.7-.92-2.32-.58-.62-1.31-.94-2.13-.94zm12.42 19.72c.84-1.18 1.9-2.17 3.16-2.96 1.13-.69 2.25-1.14 3.42-1.36l4.33-.27c1.57.07 3.03.39 4.34 1.01 3.16 1.48 5.15 4.2 5.9 8.16.77 4 .12 7.39-1.95 10.13-1.75 2.33-4.07 3.81-7 4.45-3.07.72-5.92.5-8.5-.62-3.35-1.43-5.39-4.27-6.04-8.43-.59-3.92.18-7.26 2.34-10.11zm13.72-1.11c-1.43-1.68-3.23-2.42-5.41-2.22-2.11.22-3.72 1.46-4.78 3.8-.96 2.13-1.31 4.73-.96 7.79.26 3.04 1.18 5.46 2.65 7.32 1.57 1.95 3.35 2.77 5.34 2.4 2.09-.42 3.61-1.61 4.62-3.59.98-2.02 1.33-4.64 1.1-7.98-.28-3.34-1.1-5.81-2.56-7.52zM57.22 30.4v.25l-.52-.35v.12l.05.23h-.07v-.47h.02l.47.37v-.37h.09l-.04.22z" fill="#1B1B1B" fill-rule="evenodd"/><path d="M58.08 30.23h-.28v.17h.24v.02h-.24v.18h.28v.05h-.35v-.47h.35v.05zm1.29-.05h.02l-.23.47h-.07l-.19-.37-.21.37h-.02c-.12-.23-.21-.37-.24-.47h.12l.14.37.21-.37h.07l.17.37.18-.37h.05zm.66.24.04.23h-.11v-.17l-.24-.3h.12l.19.24.18-.24h.1l-.28.24zm.65-.14c.05-.05.17-.1.28-.1.12 0 .19.05.28.1.03.02.07.07.07.14l-.07.18c-.09.05-.16.05-.28.05-.11 0-.23 0-.28-.05l-.12-.18a.16.16 0 0 1 .12-.14zm.47 0-.19-.05-.18.05c-.05.02-.1.07-.1.14 0 .06.05.1.1.13l.18.1c.07 0 .17-.05.19-.1.05-.03.09-.07.09-.13 0-.07-.04-.12-.09-.14zm.7-.05-.02.17h.07c.12 0 .19-.05.19-.1 0-.02-.03-.07-.14-.07h-.1zm.12-.05c.12 0 .21.05.21.12l-.09.1-.12.02.28.23h-.12l-.28-.23h-.02l.02.23h-.11v-.47h.23zm1.17 0-.3.22.3.25h-.11l-.26-.23v-.02l-.05.02.05.23h-.12v-.47h.12l-.05.22h.05l.3-.22h.07z" fill="#1B1B1B" fill-rule="evenodd"/></svg></svg>