<svg width="120.000000" height="50.000000" viewBox="0 0 120 50" fill="none" xmlns="http://www.w3.org/2000/svg" xmlns:xlink="http://www.w3.org/1999/xlink">
	<desc>
			Created with Pixso.
	</desc>
	<defs/>
	<path id="Vector" d="M4.87 1.18L2.59 1.06L1.66 0.86L1.47 0.49C1.47 0.14 1.7 0 2.17 0L25.67 0C36.68 0 44.4 3.53 48.9 10.62C51.48 14.73 52.77 19.6 52.77 25.23C52.77 28.18 52.34 31.02 51.48 33.76C50.49 36.65 49.14 39.2 47.38 41.48C45.46 43.87 43.12 45.73 40.42 47.09C37.54 48.47 34.31 49.19 30.68 49.19L0.72 49.19C0.23 49.19 0 49.01 0 48.72C0 48.4 0.35 48.22 1 48.22L6.74 47.85C7.63 47.73 8.26 47.46 8.57 47.09L9.15 46.22C9.36 45.63 9.48 44.74 9.51 43.53L9.51 4.32C9.51 2.79 8.69 1.85 7.09 1.48L4.87 1.18ZM17.52 1.85L17.35 2.84L17.35 46.37C17.35 46.86 17.44 47.21 17.63 47.33L18.57 47.48L21.66 47.48L28.83 47.21C30.75 46.99 32.39 46.67 33.68 46.22C34.96 45.73 36.18 45.01 37.24 44.14C38.17 43.33 39.13 42.17 40.19 40.68C41.94 38.26 43.21 35.17 43.98 31.39C44.45 28.92 44.68 26.52 44.68 24.22C44.68 22.19 44.4 20.02 43.82 17.67C43 14.28 41.76 11.32 40 8.8C36.6 3.9 31.03 1.48 23.32 1.48L18.57 1.48C18.03 1.43 17.68 1.55 17.52 1.85ZM57.38 48.82C57.33 48.52 57.57 48.4 58.08 48.4L59.72 48.35C60.61 48.22 61.15 47.9 61.36 47.41L61.67 45.63L61.67 31.27C61.67 30.72 61.48 30.3 61.13 30.05L59.91 29.93L58.27 30.4L57.38 30.35C57.26 30.05 57.61 29.78 58.43 29.53C60.38 28.99 62.09 28.3 63.54 27.43C64.43 26.89 65.06 26.59 65.34 26.47L66.05 26.4C66.28 26.44 66.4 26.94 66.4 27.83L66.4 45.92C66.4 46.79 66.58 47.41 66.94 47.78C67.36 48.22 68.34 48.44 69.86 48.44C70.4 48.44 70.68 48.57 70.73 48.84C70.73 49.06 70.57 49.14 70.29 49.14L57.8 49.14C57.52 49.14 57.38 49.01 57.38 48.82ZM112.66 31.02C111.51 32.28 110.74 33.76 110.31 35.54L110.31 46.05C110.31 46.99 110.62 47.65 111.25 48.07L112.68 48.35L114.18 48.52C114.53 48.57 114.67 48.64 114.67 48.84L114.6 49.01L114.2 49.14L101.67 49.14C101.3 49.14 101.09 49.01 101.09 48.82L101.44 48.52L103.55 48.35C104.37 48.2 104.88 47.9 105.16 47.46L105.52 46.34L105.52 31.51L105.28 30.42L104.88 30.18C104.77 30.05 104.58 29.98 104.3 29.93C103.95 29.91 103.52 29.98 103.08 30.18L101.89 30.52L101.21 30.35C101.09 30.18 101.14 30.05 101.3 29.98L102.31 29.54C104.6 28.82 106.45 28.08 107.74 27.31L109.33 26.4L110.04 26.45L110.32 27.06L110.32 32.5C112.07 29.49 113.48 27.63 114.44 27.01C115.02 26.64 115.59 26.35 116.01 26.22L116.83 26.15C117.34 26.1 117.93 26.27 118.58 26.72C119.47 27.26 119.94 28.08 119.99 29.12C120.04 29.98 119.8 30.65 119.29 31.17C118.82 31.59 118.35 31.71 117.93 31.59C117.53 31.51 117.23 31.34 117.02 31.09L116.36 30.23C115.84 29.44 115.35 29.19 114.77 29.41C114.09 29.61 113.38 30.15 112.66 31.02ZM63.7 10.7C62.84 10.7 62.13 11.02 61.55 11.64C60.92 12.26 60.61 13.05 60.66 13.96C60.61 14.83 60.92 15.57 61.55 16.19C62.13 16.81 62.84 17.13 63.7 17.13C64.52 17.13 65.25 16.8 65.83 16.19C66.42 15.57 66.75 14.83 66.75 13.96C66.75 13.05 66.42 12.26 65.83 11.64C65.25 11.02 64.52 10.7 63.7 10.7ZM76.12 30.42C76.96 29.24 78.02 28.25 79.28 27.46C80.41 26.77 81.53 26.32 82.7 26.1L87.03 25.83C88.6 25.9 90.06 26.22 91.37 26.84C94.53 28.32 96.52 31.04 97.27 35C98.04 39 97.39 42.39 95.32 45.13C93.57 47.46 91.25 48.94 88.32 49.58C85.25 50.3 82.4 50.08 79.82 48.96C76.47 47.53 74.43 44.69 73.78 40.53C73.19 36.61 73.96 33.27 76.12 30.42ZM89.84 29.31C88.41 27.63 86.61 26.89 84.43 27.09C82.32 27.31 80.71 28.55 79.65 30.89C78.69 33.02 78.34 35.62 78.69 38.68C78.95 41.72 79.87 44.14 81.34 46C82.91 47.95 84.69 48.77 86.68 48.4C88.77 47.98 90.29 46.79 91.3 44.81C92.28 42.79 92.63 40.17 92.4 36.83C92.12 33.49 91.3 31.02 89.84 29.31Z" fill="#1B1B1B" fill-opacity="1.000000" fill-rule="evenodd"/>
	<path id="Vector" d="M57.22 30.4L57.22 30.65L56.7 30.3L56.7 30.42L56.75 30.65L56.68 30.65C56.68 30.6 56.68 30.47 56.68 30.35L56.68 30.18L56.7 30.18L57.17 30.55L57.17 30.18L57.26 30.18L57.22 30.4Z" fill="#1B1B1B" fill-opacity="1.000000" fill-rule="evenodd"/>
	<path id="Vector" d="M58.08 30.23L57.8 30.23L57.8 30.4L58.04 30.4L58.04 30.42L57.8 30.42L57.8 30.6L58.08 30.6L58.08 30.65L57.73 30.65L57.73 30.18L58.08 30.18L58.08 30.23Z" fill="#1B1B1B" fill-opacity="1.000000" fill-rule="evenodd"/>
	<path id="Vector" d="M59.37 30.18L59.39 30.18L59.16 30.65L59.09 30.65L58.9 30.28L58.69 30.65L58.67 30.65C58.55 30.42 58.46 30.28 58.43 30.18L58.55 30.18L58.69 30.55L58.9 30.18L58.97 30.18L59.14 30.55L59.32 30.18L59.37 30.18Z" fill="#1B1B1B" fill-opacity="1.000000" fill-rule="evenodd"/>
	<path id="Vector" d="M60.03 30.42L60.07 30.65L59.96 30.65L59.96 30.48L59.72 30.18L59.84 30.18L60.03 30.42L60.21 30.18L60.31 30.18L60.03 30.42Z" fill="#1B1B1B" fill-opacity="1.000000" fill-rule="evenodd"/>
	<path id="Vector" d="M60.68 30.28C60.73 30.23 60.85 30.18 60.96 30.18C61.08 30.18 61.15 30.23 61.24 30.28C61.27 30.3 61.31 30.35 61.31 30.42L61.24 30.6C61.15 30.65 61.08 30.65 60.96 30.65C60.85 30.65 60.73 30.65 60.68 30.6L60.56 30.42C60.57 30.35 60.61 30.3 60.68 30.28ZM61.15 30.28L60.96 30.23L60.78 30.28C60.73 30.3 60.68 30.35 60.68 30.42C60.68 30.48 60.73 30.52 60.78 30.55L60.96 30.65C61.03 30.65 61.13 30.6 61.15 30.55C61.2 30.52 61.24 30.48 61.24 30.42C61.24 30.35 61.2 30.3 61.15 30.28Z" fill="#1B1B1B" fill-opacity="1.000000" fill-rule="evenodd"/>
	<path id="Vector" d="M61.85 30.23L61.83 30.4L61.9 30.4C62.02 30.4 62.09 30.35 62.09 30.3C62.09 30.28 62.06 30.23 61.95 30.23L61.85 30.23ZM61.97 30.18C62.09 30.18 62.18 30.23 62.18 30.3L62.09 30.4L61.97 30.42L62.25 30.65L62.13 30.65L61.85 30.42L61.83 30.42L61.85 30.65L61.74 30.65L61.74 30.18L61.97 30.18Z" fill="#1B1B1B" fill-opacity="1.000000" fill-rule="evenodd"/>
	<path id="Vector" d="M63.14 30.18L62.84 30.4L63.14 30.65L63.03 30.65L62.77 30.42L62.77 30.4L62.72 30.42L62.77 30.65L62.65 30.65L62.65 30.18L62.77 30.18L62.72 30.4L62.77 30.4L63.07 30.18L63.14 30.18Z" fill="#1B1B1B" fill-opacity="1.000000" fill-rule="evenodd"/>
</svg>
